<?xml version="1.0" standalone="no"?>
<!DOCTYPE svg PUBLIC "-//W3C//DTD SVG 20010904//EN"
 "http://www.w3.org/TR/2001/REC-SVG-20010904/DTD/svg10.dtd">
<svg version="1.0" xmlns="http://www.w3.org/2000/svg"
 width="276.000000pt" height="88.000000pt" viewBox="0 0 276.000000 88.000000"
 preserveAspectRatio="xMidYMid meet">
<metadata>
Created by potrace 1.16, written by Peter Selinger 2001-2019
</metadata>
<g transform="translate(0.000000,88.000000) scale(0.100000,-0.100000)"
fill="#000000" stroke="none">
<path d="M1260 824 c-94 -25 -180 -86 -230 -163 -15 -23 -16 -23 -69 -7 -80
24 -197 30 -290 17 l-82 -12 -43 45 c-24 24 -63 54 -87 66 l-44 22 30 -26 c17
-14 33 -25 36 -26 17 -1 141 -190 125 -190 -3 0 -19 26 -37 58 -64 111 -186
201 -297 218 l-43 7 62 -109 c34 -60 65 -113 70 -118 19 -20 7 -42 -42 -78
-27 -21 -56 -38 -63 -38 -6 0 -22 20 -34 45 -23 47 -28 51 -51 36 -11 -7 1
-36 60 -140 41 -72 76 -131 79 -131 3 0 12 4 20 9 12 8 9 19 -17 70 l-31 61
46 37 c26 20 52 41 58 45 13 9 49 -45 119 -177 136 -255 170 -288 310 -293
l83 -4 77 139 c116 206 185 323 192 323 13 0 83 -63 83 -75 0 -8 -13 -36 -29
-63 -29 -49 -27 -72 4 -72 11 0 155 240 155 259 0 6 -8 15 -18 20 -15 8 -22 1
-45 -40 -16 -27 -31 -49 -33 -49 -9 0 -94 63 -94 69 0 3 34 64 75 137 41 73
75 135 75 138 0 9 -18 7 -80 -10z m-344 -206 c42 -7 64 -16 64 -25 0 -22 -163
-304 -173 -300 -9 3 -186 305 -187 319 -1 19 204 23 296 6z"/>
</g>
</svg>
