<svg xmlns="http://www.w3.org/2000/svg" xmlns:xlink="http://www.w3.org/1999/xlink" width="1566" zoomAndPan="magnify" viewBox="0 0 1174.5 289.499996" height="386" preserveAspectRatio="xMidYMid meet" version="1.0"><defs><g/><clipPath id="9102cb32cb"><path d="M 1025.964844 114.601562 L 1098.492188 114.601562 L 1098.492188 174.320312 L 1025.964844 174.320312 Z M 1025.964844 114.601562 " clip-rule="nonzero"/></clipPath><clipPath id="ea856687e7"><path d="M 1058.226562 144.433594 L 1025.964844 174.269531 L 1066.230469 174.269531 L 1098.488281 144.433594 L 1066.230469 114.601562 L 1025.964844 114.601562 Z M 1058.226562 144.433594 " clip-rule="nonzero"/></clipPath><clipPath id="1e1d6deeaa"><path d="M 76.011719 114.601562 L 148.535156 114.601562 L 148.535156 174.320312 L 76.011719 174.320312 Z M 76.011719 114.601562 " clip-rule="nonzero"/></clipPath><clipPath id="2c23aa32bd"><path d="M 116.273438 144.433594 L 148.53125 174.269531 L 108.269531 174.269531 L 76.011719 144.433594 L 108.269531 114.601562 L 148.53125 114.601562 Z M 116.273438 144.433594 " clip-rule="nonzero"/></clipPath></defs><g clip-path="url(#9102cb32cb)"><g clip-path="url(#ea856687e7)"><path fill="#141414" d="M 1025.964844 114.601562 L 1098.492188 114.601562 L 1098.492188 174.320312 L 1025.964844 174.320312 Z M 1025.964844 114.601562 " fill-opacity="1" fill-rule="nonzero"/><path fill="#ffffff" d="M 1025.964844 114.601562 L 1098.492188 114.601562 L 1098.492188 174.320312 L 1025.964844 174.320312 Z M 1025.964844 114.601562 " fill-opacity="1" fill-rule="nonzero"/></g></g><g clip-path="url(#1e1d6deeaa)"><g clip-path="url(#2c23aa32bd)"><path fill="#141414" d="M 76.011719 114.601562 L 148.535156 114.601562 L 148.535156 174.320312 L 76.011719 174.320312 Z M 76.011719 114.601562 " fill-opacity="1" fill-rule="nonzero"/><path fill="#ffffff" d="M 76.011719 114.601562 L 148.535156 114.601562 L 148.535156 174.320312 L 76.011719 174.320312 Z M 76.011719 114.601562 " fill-opacity="1" fill-rule="nonzero"/></g></g><g fill="#ffffff" fill-opacity="0.4"><g transform="translate(326.680239, 195.826851)"><g><path d="M 12.984375 0 L 12.984375 -80.421875 L 1.15625 -80.421875 L 1.15625 -99.546875 L 44.734375 -99.546875 L 44.734375 -80.421875 L 32.90625 -80.421875 L 32.90625 0 Z M 12.984375 0 "/></g></g></g><g fill="#ffffff" fill-opacity="0.4"><g transform="translate(372.573945, 195.826851)"><g><path d="M 4.40625 -99.546875 L 35 -99.546875 C 39.863281 -99.546875 43.628906 -98.441406 46.296875 -96.234375 C 48.960938 -94.035156 50.757812 -90.945312 51.6875 -86.96875 C 52.613281 -82.988281 53.078125 -77.910156 53.078125 -71.734375 C 53.078125 -66.097656 52.34375 -61.691406 50.875 -58.515625 C 49.40625 -55.347656 46.859375 -53.148438 43.234375 -51.921875 C 46.242188 -51.296875 48.421875 -49.785156 49.765625 -47.390625 C 51.117188 -45.003906 51.796875 -41.765625 51.796875 -37.671875 L 51.578125 0 L 32.109375 0 L 32.109375 -38.9375 C 32.109375 -41.71875 31.566406 -43.492188 30.484375 -44.265625 C 29.398438 -45.035156 27.425781 -45.421875 24.5625 -45.421875 L 24.5625 0 L 4.40625 0 Z M 29.4375 -62.703125 C 32.21875 -62.703125 33.609375 -65.710938 33.609375 -71.734375 C 33.609375 -74.359375 33.488281 -76.328125 33.25 -77.640625 C 33.019531 -78.953125 32.597656 -79.859375 31.984375 -80.359375 C 31.367188 -80.867188 30.484375 -81.125 29.328125 -81.125 L 24.6875 -81.125 L 24.6875 -62.703125 Z M 29.4375 -62.703125 "/></g></g></g><g fill="#ffffff" fill-opacity="0.4"><g transform="translate(427.855001, 195.826851)"><g><path d="M 1.734375 0 L 11.359375 -99.546875 L 45.078125 -99.546875 L 54.578125 0 L 35.6875 0 L 34.296875 -16.109375 L 22.25 -16.109375 L 21.09375 0 Z M 23.75 -31.984375 L 32.796875 -31.984375 L 28.390625 -82.625 L 27.46875 -82.625 Z M 23.75 -31.984375 "/></g></g></g><g fill="#ffffff" fill-opacity="0.4"><g transform="translate(484.063201, 195.826851)"><g><path d="M 28.046875 0.921875 C 19.003906 0.921875 12.472656 -1.316406 8.453125 -5.796875 C 4.441406 -10.273438 2.4375 -17.5 2.4375 -27.46875 L 2.4375 -37.203125 L 22.015625 -37.203125 L 22.015625 -24.796875 C 22.015625 -19.859375 23.597656 -17.390625 26.765625 -17.390625 C 28.546875 -17.390625 29.78125 -17.910156 30.46875 -18.953125 C 31.164062 -19.992188 31.515625 -21.75 31.515625 -24.21875 C 31.515625 -27.46875 31.128906 -30.15625 30.359375 -32.28125 C 29.585938 -34.40625 28.601562 -36.179688 27.40625 -37.609375 C 26.207031 -39.035156 24.0625 -41.253906 20.96875 -44.265625 L 12.40625 -52.84375 C 5.757812 -59.332031 2.4375 -66.519531 2.4375 -74.40625 C 2.4375 -82.90625 4.382812 -89.375 8.28125 -93.8125 C 12.1875 -98.257812 17.882812 -100.484375 25.375 -100.484375 C 34.34375 -100.484375 40.796875 -98.101562 44.734375 -93.34375 C 48.671875 -88.59375 50.640625 -81.160156 50.640625 -71.046875 L 30.359375 -71.046875 L 30.25 -77.875 C 30.25 -79.1875 29.878906 -80.226562 29.140625 -81 C 28.410156 -81.78125 27.390625 -82.171875 26.078125 -82.171875 C 24.523438 -82.171875 23.363281 -81.742188 22.59375 -80.890625 C 21.820312 -80.035156 21.4375 -78.878906 21.4375 -77.421875 C 21.4375 -74.171875 23.289062 -70.804688 27 -67.328125 L 38.59375 -56.203125 C 41.289062 -53.578125 43.53125 -51.085938 45.3125 -48.734375 C 47.09375 -46.378906 48.519531 -43.597656 49.59375 -40.390625 C 50.675781 -37.179688 51.21875 -33.375 51.21875 -28.96875 C 51.21875 -19.15625 49.421875 -11.71875 45.828125 -6.65625 C 42.242188 -1.601562 36.316406 0.921875 28.046875 0.921875 Z M 28.046875 0.921875 "/></g></g></g><g fill="#ffffff" fill-opacity="0.4"><g transform="translate(537.489968, 195.826851)"><g><path d="M 27.578125 0.921875 C 20.316406 0.921875 14.503906 -1.351562 10.140625 -5.90625 C 5.773438 -10.46875 3.59375 -16.726562 3.59375 -24.6875 L 3.59375 -70.578125 C 3.59375 -80.460938 5.5625 -87.914062 9.5 -92.9375 C 13.4375 -97.96875 19.617188 -100.484375 28.046875 -100.484375 C 35.390625 -100.484375 41.300781 -98.472656 45.78125 -94.453125 C 50.257812 -90.429688 52.5 -84.632812 52.5 -77.0625 L 52.5 -59.921875 L 32.6875 -59.921875 L 32.6875 -74.640625 C 32.6875 -77.492188 32.335938 -79.460938 31.640625 -80.546875 C 30.941406 -81.628906 29.742188 -82.171875 28.046875 -82.171875 C 26.265625 -82.171875 25.046875 -81.550781 24.390625 -80.3125 C 23.734375 -79.070312 23.40625 -77.253906 23.40625 -74.859375 L 23.40625 -24.921875 C 23.40625 -22.285156 23.789062 -20.367188 24.5625 -19.171875 C 25.34375 -17.984375 26.503906 -17.390625 28.046875 -17.390625 C 31.140625 -17.390625 32.6875 -19.898438 32.6875 -24.921875 L 32.6875 -42.875 L 52.734375 -42.875 L 52.734375 -24.109375 C 52.734375 -7.421875 44.347656 0.921875 27.578125 0.921875 Z M 27.578125 0.921875 "/></g></g></g><g fill="#ffffff" fill-opacity="0.4"><g transform="translate(592.423361, 195.826851)"><g><path d="M 4.40625 0 L 4.40625 -99.546875 L 44.265625 -99.546875 L 44.265625 -80.3125 L 24.6875 -80.3125 L 24.6875 -60.953125 L 43.453125 -60.953125 L 43.453125 -42.1875 L 24.6875 -42.1875 L 24.6875 -19.359375 L 45.546875 -19.359375 L 45.546875 0 Z M 4.40625 0 "/></g></g></g><g fill="#ffffff" fill-opacity="0.4"><g transform="translate(640.171368, 195.826851)"><g><path d="M 4.40625 0 L 4.40625 -99.546875 L 24.921875 -99.546875 L 34.078125 -51.921875 L 34.078125 -99.546875 L 53.3125 -99.546875 L 53.3125 0 L 33.84375 0 L 23.875 -49.828125 L 23.875 0 Z M 4.40625 0 "/></g></g></g><g fill="#ffffff" fill-opacity="0.4"><g transform="translate(697.886167, 195.826851)"><g><path d="M 4.40625 -99.546875 L 31.875 -99.546875 C 38.976562 -99.546875 44.304688 -97.578125 47.859375 -93.640625 C 51.410156 -89.703125 53.226562 -83.867188 53.3125 -76.140625 L 53.546875 -29.546875 C 53.617188 -19.734375 51.914062 -12.351562 48.4375 -7.40625 C 44.96875 -2.46875 39.210938 0 31.171875 0 L 4.40625 0 Z M 27.921875 -17.609375 C 31.554688 -17.609375 33.375 -19.390625 33.375 -22.953125 L 33.375 -74.28125 C 33.375 -76.519531 33.195312 -78.195312 32.84375 -79.3125 C 32.5 -80.4375 31.863281 -81.191406 30.9375 -81.578125 C 30.007812 -81.972656 28.582031 -82.171875 26.65625 -82.171875 L 24.453125 -82.171875 L 24.453125 -17.609375 Z M 27.921875 -17.609375 "/></g></g></g><g fill="#ffffff" fill-opacity="0.4"><g transform="translate(755.021498, 195.826851)"><g><path d="M 4.40625 0 L 4.40625 -99.546875 L 44.265625 -99.546875 L 44.265625 -80.3125 L 24.6875 -80.3125 L 24.6875 -60.953125 L 43.453125 -60.953125 L 43.453125 -42.1875 L 24.6875 -42.1875 L 24.6875 -19.359375 L 45.546875 -19.359375 L 45.546875 0 Z M 4.40625 0 "/></g></g></g><g fill="#ffffff" fill-opacity="0.4"><g transform="translate(802.769505, 195.826851)"><g><path d="M 4.40625 -99.546875 L 35 -99.546875 C 39.863281 -99.546875 43.628906 -98.441406 46.296875 -96.234375 C 48.960938 -94.035156 50.757812 -90.945312 51.6875 -86.96875 C 52.613281 -82.988281 53.078125 -77.910156 53.078125 -71.734375 C 53.078125 -66.097656 52.34375 -61.691406 50.875 -58.515625 C 49.40625 -55.347656 46.859375 -53.148438 43.234375 -51.921875 C 46.242188 -51.296875 48.421875 -49.785156 49.765625 -47.390625 C 51.117188 -45.003906 51.796875 -41.765625 51.796875 -37.671875 L 51.578125 0 L 32.109375 0 L 32.109375 -38.9375 C 32.109375 -41.71875 31.566406 -43.492188 30.484375 -44.265625 C 29.398438 -45.035156 27.425781 -45.421875 24.5625 -45.421875 L 24.5625 0 L 4.40625 0 Z M 29.4375 -62.703125 C 32.21875 -62.703125 33.609375 -65.710938 33.609375 -71.734375 C 33.609375 -74.359375 33.488281 -76.328125 33.25 -77.640625 C 33.019531 -78.953125 32.597656 -79.859375 31.984375 -80.359375 C 31.367188 -80.867188 30.484375 -81.125 29.328125 -81.125 L 24.6875 -81.125 L 24.6875 -62.703125 Z M 29.4375 -62.703125 "/></g></g></g><g fill="#ffffff" fill-opacity="1"><g transform="translate(321.55809, 190.704687)"><g><path d="M 12.984375 0 L 12.984375 -80.421875 L 1.15625 -80.421875 L 1.15625 -99.546875 L 44.734375 -99.546875 L 44.734375 -80.421875 L 32.90625 -80.421875 L 32.90625 0 Z M 12.984375 0 "/></g></g></g><g fill="#ffffff" fill-opacity="1"><g transform="translate(367.451796, 190.704687)"><g><path d="M 4.40625 -99.546875 L 35 -99.546875 C 39.863281 -99.546875 43.628906 -98.441406 46.296875 -96.234375 C 48.960938 -94.035156 50.757812 -90.945312 51.6875 -86.96875 C 52.613281 -82.988281 53.078125 -77.910156 53.078125 -71.734375 C 53.078125 -66.097656 52.34375 -61.691406 50.875 -58.515625 C 49.40625 -55.347656 46.859375 -53.148438 43.234375 -51.921875 C 46.242188 -51.296875 48.421875 -49.785156 49.765625 -47.390625 C 51.117188 -45.003906 51.796875 -41.765625 51.796875 -37.671875 L 51.578125 0 L 32.109375 0 L 32.109375 -38.9375 C 32.109375 -41.71875 31.566406 -43.492188 30.484375 -44.265625 C 29.398438 -45.035156 27.425781 -45.421875 24.5625 -45.421875 L 24.5625 0 L 4.40625 0 Z M 29.4375 -62.703125 C 32.21875 -62.703125 33.609375 -65.710938 33.609375 -71.734375 C 33.609375 -74.359375 33.488281 -76.328125 33.25 -77.640625 C 33.019531 -78.953125 32.597656 -79.859375 31.984375 -80.359375 C 31.367188 -80.867188 30.484375 -81.125 29.328125 -81.125 L 24.6875 -81.125 L 24.6875 -62.703125 Z M 29.4375 -62.703125 "/></g></g></g><g fill="#ffffff" fill-opacity="1"><g transform="translate(422.732852, 190.704687)"><g><path d="M 1.734375 0 L 11.359375 -99.546875 L 45.078125 -99.546875 L 54.578125 0 L 35.6875 0 L 34.296875 -16.109375 L 22.25 -16.109375 L 21.09375 0 Z M 23.75 -31.984375 L 32.796875 -31.984375 L 28.390625 -82.625 L 27.46875 -82.625 Z M 23.75 -31.984375 "/></g></g></g><g fill="#ffffff" fill-opacity="1"><g transform="translate(478.941052, 190.704687)"><g><path d="M 28.046875 0.921875 C 19.003906 0.921875 12.472656 -1.316406 8.453125 -5.796875 C 4.441406 -10.273438 2.4375 -17.5 2.4375 -27.46875 L 2.4375 -37.203125 L 22.015625 -37.203125 L 22.015625 -24.796875 C 22.015625 -19.859375 23.597656 -17.390625 26.765625 -17.390625 C 28.546875 -17.390625 29.78125 -17.910156 30.46875 -18.953125 C 31.164062 -19.992188 31.515625 -21.75 31.515625 -24.21875 C 31.515625 -27.46875 31.128906 -30.15625 30.359375 -32.28125 C 29.585938 -34.40625 28.601562 -36.179688 27.40625 -37.609375 C 26.207031 -39.035156 24.0625 -41.253906 20.96875 -44.265625 L 12.40625 -52.84375 C 5.757812 -59.332031 2.4375 -66.519531 2.4375 -74.40625 C 2.4375 -82.90625 4.382812 -89.375 8.28125 -93.8125 C 12.1875 -98.257812 17.882812 -100.484375 25.375 -100.484375 C 34.34375 -100.484375 40.796875 -98.101562 44.734375 -93.34375 C 48.671875 -88.59375 50.640625 -81.160156 50.640625 -71.046875 L 30.359375 -71.046875 L 30.25 -77.875 C 30.25 -79.1875 29.878906 -80.226562 29.140625 -81 C 28.410156 -81.78125 27.390625 -82.171875 26.078125 -82.171875 C 24.523438 -82.171875 23.363281 -81.742188 22.59375 -80.890625 C 21.820312 -80.035156 21.4375 -78.878906 21.4375 -77.421875 C 21.4375 -74.171875 23.289062 -70.804688 27 -67.328125 L 38.59375 -56.203125 C 41.289062 -53.578125 43.53125 -51.085938 45.3125 -48.734375 C 47.09375 -46.378906 48.519531 -43.597656 49.59375 -40.390625 C 50.675781 -37.179688 51.21875 -33.375 51.21875 -28.96875 C 51.21875 -19.15625 49.421875 -11.71875 45.828125 -6.65625 C 42.242188 -1.601562 36.316406 0.921875 28.046875 0.921875 Z M 28.046875 0.921875 "/></g></g></g><g fill="#ffffff" fill-opacity="1"><g transform="translate(532.367819, 190.704687)"><g><path d="M 27.578125 0.921875 C 20.316406 0.921875 14.503906 -1.351562 10.140625 -5.90625 C 5.773438 -10.46875 3.59375 -16.726562 3.59375 -24.6875 L 3.59375 -70.578125 C 3.59375 -80.460938 5.5625 -87.914062 9.5 -92.9375 C 13.4375 -97.96875 19.617188 -100.484375 28.046875 -100.484375 C 35.390625 -100.484375 41.300781 -98.472656 45.78125 -94.453125 C 50.257812 -90.429688 52.5 -84.632812 52.5 -77.0625 L 52.5 -59.921875 L 32.6875 -59.921875 L 32.6875 -74.640625 C 32.6875 -77.492188 32.335938 -79.460938 31.640625 -80.546875 C 30.941406 -81.628906 29.742188 -82.171875 28.046875 -82.171875 C 26.265625 -82.171875 25.046875 -81.550781 24.390625 -80.3125 C 23.734375 -79.070312 23.40625 -77.253906 23.40625 -74.859375 L 23.40625 -24.921875 C 23.40625 -22.285156 23.789062 -20.367188 24.5625 -19.171875 C 25.34375 -17.984375 26.503906 -17.390625 28.046875 -17.390625 C 31.140625 -17.390625 32.6875 -19.898438 32.6875 -24.921875 L 32.6875 -42.875 L 52.734375 -42.875 L 52.734375 -24.109375 C 52.734375 -7.421875 44.347656 0.921875 27.578125 0.921875 Z M 27.578125 0.921875 "/></g></g></g><g fill="#ffffff" fill-opacity="1"><g transform="translate(587.301212, 190.704687)"><g><path d="M 4.40625 0 L 4.40625 -99.546875 L 44.265625 -99.546875 L 44.265625 -80.3125 L 24.6875 -80.3125 L 24.6875 -60.953125 L 43.453125 -60.953125 L 43.453125 -42.1875 L 24.6875 -42.1875 L 24.6875 -19.359375 L 45.546875 -19.359375 L 45.546875 0 Z M 4.40625 0 "/></g></g></g><g fill="#ffffff" fill-opacity="1"><g transform="translate(635.049219, 190.704687)"><g><path d="M 4.40625 0 L 4.40625 -99.546875 L 24.921875 -99.546875 L 34.078125 -51.921875 L 34.078125 -99.546875 L 53.3125 -99.546875 L 53.3125 0 L 33.84375 0 L 23.875 -49.828125 L 23.875 0 Z M 4.40625 0 "/></g></g></g><g fill="#ffffff" fill-opacity="1"><g transform="translate(692.764018, 190.704687)"><g><path d="M 4.40625 -99.546875 L 31.875 -99.546875 C 38.976562 -99.546875 44.304688 -97.578125 47.859375 -93.640625 C 51.410156 -89.703125 53.226562 -83.867188 53.3125 -76.140625 L 53.546875 -29.546875 C 53.617188 -19.734375 51.914062 -12.351562 48.4375 -7.40625 C 44.96875 -2.46875 39.210938 0 31.171875 0 L 4.40625 0 Z M 27.921875 -17.609375 C 31.554688 -17.609375 33.375 -19.390625 33.375 -22.953125 L 33.375 -74.28125 C 33.375 -76.519531 33.195312 -78.195312 32.84375 -79.3125 C 32.5 -80.4375 31.863281 -81.191406 30.9375 -81.578125 C 30.007812 -81.972656 28.582031 -82.171875 26.65625 -82.171875 L 24.453125 -82.171875 L 24.453125 -17.609375 Z M 27.921875 -17.609375 "/></g></g></g><g fill="#ffffff" fill-opacity="1"><g transform="translate(749.899348, 190.704687)"><g><path d="M 4.40625 0 L 4.40625 -99.546875 L 44.265625 -99.546875 L 44.265625 -80.3125 L 24.6875 -80.3125 L 24.6875 -60.953125 L 43.453125 -60.953125 L 43.453125 -42.1875 L 24.6875 -42.1875 L 24.6875 -19.359375 L 45.546875 -19.359375 L 45.546875 0 Z M 4.40625 0 "/></g></g></g><g fill="#ffffff" fill-opacity="1"><g transform="translate(797.647356, 190.704687)"><g><path d="M 4.40625 -99.546875 L 35 -99.546875 C 39.863281 -99.546875 43.628906 -98.441406 46.296875 -96.234375 C 48.960938 -94.035156 50.757812 -90.945312 51.6875 -86.96875 C 52.613281 -82.988281 53.078125 -77.910156 53.078125 -71.734375 C 53.078125 -66.097656 52.34375 -61.691406 50.875 -58.515625 C 49.40625 -55.347656 46.859375 -53.148438 43.234375 -51.921875 C 46.242188 -51.296875 48.421875 -49.785156 49.765625 -47.390625 C 51.117188 -45.003906 51.796875 -41.765625 51.796875 -37.671875 L 51.578125 0 L 32.109375 0 L 32.109375 -38.9375 C 32.109375 -41.71875 31.566406 -43.492188 30.484375 -44.265625 C 29.398438 -45.035156 27.425781 -45.421875 24.5625 -45.421875 L 24.5625 0 L 4.40625 0 Z M 29.4375 -62.703125 C 32.21875 -62.703125 33.609375 -65.710938 33.609375 -71.734375 C 33.609375 -74.359375 33.488281 -76.328125 33.25 -77.640625 C 33.019531 -78.953125 32.597656 -79.859375 31.984375 -80.359375 C 31.367188 -80.867188 30.484375 -81.125 29.328125 -81.125 L 24.6875 -81.125 L 24.6875 -62.703125 Z M 29.4375 -62.703125 "/></g></g></g></svg>